<svg width="22" height="22" viewBox="0 0 22 22" fill="none" xmlns="http://www.w3.org/2000/svg">
<path fill-rule="evenodd" clip-rule="evenodd" d="M21.951 11.137C21.951 5.33859 17.2495 0.637024 11.451 0.637024C5.65261 0.637024 0.95105 5.33859 0.95105 11.137C0.95105 16.3777 4.79011 20.7216 9.81042 21.51V14.1731H7.14371V11.137H9.81042V8.82374C9.81042 6.19265 11.3784 4.73812 13.7765 4.73812C14.9254 4.73812 16.1273 4.94343 16.1273 4.94343V7.52765H14.8026C13.499 7.52765 13.0912 8.33671 13.0912 9.16827V11.137H16.0031L15.5381 14.1731H13.0917V21.5109C18.112 20.723 21.951 16.3791 21.951 11.137V11.137Z" fill="#39539A"/>
</svg>
