<svg width="22" height="22" viewBox="0 0 22 22" fill="none" xmlns="http://www.w3.org/2000/svg">
<path fill-rule="evenodd" clip-rule="evenodd" d="M11.5416 19.7066C13.0886 18.3263 17.4167 13.9752 17.4167 8.49999C17.4167 5.16666 15.4115 1.83333 11 1.83333C6.58858 1.83333 4.58337 5.16666 4.58337 8.49999C4.58337 13.9752 8.91147 18.3263 10.4585 19.7066C10.7718 19.9862 11.2283 19.9862 11.5416 19.7066ZM11 11C12.5188 11 13.75 9.76878 13.75 8.24999C13.75 6.73121 12.5188 5.49999 11 5.49999C9.48126 5.49999 8.25004 6.73121 8.25004 8.24999C8.25004 9.76878 9.48126 11 11 11Z" fill="#989BA1"/>
</svg>
