<svg width="20" height="20" viewBox="0 0 20 20" fill="none" xmlns="http://www.w3.org/2000/svg">
<path d="M3.17609 8.52743L6.51216 7.85132C6.7432 7.80449 6.94359 7.66201 7.0637 7.45917L9.28299 3.71103C9.60569 3.16602 10.3944 3.16602 10.7171 3.71103L12.9364 7.45917C13.0565 7.66201 13.2569 7.80449 13.4879 7.85132L16.824 8.52743C17.4729 8.65894 17.7167 9.45822 17.2516 9.9295L14.4765 12.7416C14.2827 12.938 14.1987 13.2176 14.2521 13.4883L14.8773 16.6558C15.0118 17.3372 14.3026 17.8744 13.6831 17.5605L10.3767 15.8853C10.1399 15.7653 9.86018 15.7653 9.62341 15.8853L6.31701 17.5605C5.69746 17.8744 4.98832 17.3372 5.12281 16.6558L5.74797 13.4883C5.8014 13.2176 5.71737 12.938 5.52356 12.7416L2.74846 9.9295C2.28339 9.45822 2.52716 8.65894 3.17609 8.52743Z" fill="#FF9376"/>
</svg>
