<svg width="20" height="20" viewBox="0 0 20 20" fill="none" xmlns="http://www.w3.org/2000/svg">
<path fill-rule="evenodd" clip-rule="evenodd" d="M6.62502 4.16667C4.79729 4.16667 3.33335 5.62732 3.33335 7.40741C3.33335 8.27444 3.67822 9.06202 4.24459 9.64567L9.99991 15.4799L15.6509 9.74932C15.6566 9.74353 15.6624 9.73783 15.6683 9.7322C16.2863 9.14111 16.6667 8.31779 16.6667 7.40741C16.6667 5.62733 15.2027 4.16667 13.375 4.16667C12.9783 4.16667 12.5137 4.3889 11.9968 4.84671C11.493 5.29293 11.0419 5.87186 10.6785 6.38151C10.5222 6.60084 10.2694 6.73105 10 6.73105C9.73065 6.73105 9.47788 6.60084 9.3215 6.38151C8.95812 5.87186 8.50699 5.29293 8.00321 4.84671C7.48633 4.3889 7.02178 4.16667 6.62502 4.16667ZM1.66669 7.40741C1.66669 4.68739 3.8964 2.5 6.62502 2.5C7.62338 2.5 8.47307 3.03645 9.10828 3.59908C9.43537 3.8888 9.7346 4.21136 10 4.5289C10.2654 4.21136 10.5647 3.8888 10.8918 3.59908C11.527 3.03646 12.3767 2.5 13.375 2.5C16.1036 2.5 18.3334 4.68739 18.3334 7.40741C18.3334 8.78991 17.7548 10.0383 16.8294 10.9279L10.5934 17.2518C10.4368 17.4106 10.2231 17.5 10.0001 17.5C9.77709 17.5 9.56338 17.4107 9.40677 17.2519L3.0515 10.8095C2.19578 9.92916 1.66669 8.72935 1.66669 7.40741Z" fill="#3A3379"/>
</svg>
