<svg width="20" height="20" viewBox="0 0 20 20" fill="none" xmlns="http://www.w3.org/2000/svg">
<path fill-rule="evenodd" clip-rule="evenodd" d="M6.62496 4.16667C4.79723 4.16667 3.33329 5.62732 3.33329 7.40741C3.33329 8.27444 3.67815 9.06202 4.24452 9.64567L9.99985 15.4799L15.6508 9.74932C15.6566 9.74353 15.6624 9.73783 15.6682 9.7322C16.2863 9.14111 16.6666 8.31779 16.6666 7.40741C16.6666 5.62733 15.2027 4.16667 13.375 4.16667C12.9782 4.16667 12.5137 4.3889 11.9968 4.84671C11.493 5.29293 11.0419 5.87186 10.6785 6.38151C10.5221 6.60084 10.2693 6.73105 9.99996 6.73105C9.73058 6.73105 9.47782 6.60084 9.32144 6.38151C8.95806 5.87186 8.50693 5.29293 8.00315 4.84671C7.48627 4.3889 7.02172 4.16667 6.62496 4.16667ZM1.66663 7.40741C1.66663 4.68739 3.89634 2.5 6.62496 2.5C7.62332 2.5 8.47301 3.03645 9.10822 3.59908C9.43531 3.8888 9.73454 4.21136 9.99996 4.5289C10.2654 4.21136 10.5646 3.8888 10.8917 3.59908C11.5269 3.03646 12.3766 2.5 13.375 2.5C16.1036 2.5 18.3333 4.68739 18.3333 7.40741C18.3333 8.78991 17.7547 10.0383 16.8294 10.9279L10.5933 17.2518C10.4367 17.4106 10.223 17.5 10 17.5C9.77703 17.5 9.56332 17.4107 9.4067 17.2519L3.05144 10.8095C2.19572 9.92916 1.66663 8.72935 1.66663 7.40741Z" fill="#3A3379"/>
</svg>
